<svg xmlns="http://www.w3.org/2000/svg" viewBox="0 0 400 240">
  <defs>
    <linearGradient id="sky2" x1="0" y1="0" x2="1" y2="1">
      <stop offset="0" stop-color="#bae6fd" />
      <stop offset="1" stop-color="#f0f9ff" />
    </linearGradient>
  </defs>
  <rect width="400" height="240" fill="url(#sky2)" />
  <rect x="60" y="50" width="110" height="170" fill="#1e293b" />
  <rect x="190" y="70" width="150" height="150" fill="#334155" />
  <rect x="85" y="80" width="24" height="24" fill="#dbeafe" />
  <rect x="125" y="80" width="24" height="24" fill="#dbeafe" />
  <rect x="85" y="120" width="24" height="24" fill="#dbeafe" />
  <rect x="125" y="120" width="24" height="24" fill="#dbeafe" />
  <rect x="85" y="160" width="24" height="24" fill="#dbeafe" />
  <rect x="125" y="160" width="24" height="24" fill="#dbeafe" />
  <rect x="215" y="100" width="28" height="28" fill="#cbd5f5" />
  <rect x="255" y="100" width="28" height="28" fill="#cbd5f5" />
  <rect x="295" y="100" width="28" height="28" fill="#cbd5f5" />
  <rect x="215" y="140" width="28" height="28" fill="#cbd5f5" />
  <rect x="255" y="140" width="28" height="28" fill="#cbd5f5" />
  <rect x="295" y="140" width="28" height="28" fill="#cbd5f5" />
</svg>
