<svg xmlns="http://www.w3.org/2000/svg" viewBox="0 0 400 240">
  <defs>
    <linearGradient id="sky3" x1="0" y1="0" x2="0" y2="1">
      <stop offset="0" stop-color="#d8b4fe" />
      <stop offset="1" stop-color="#f5d0fe" />
    </linearGradient>
  </defs>
  <rect width="400" height="240" fill="url(#sky3)" />
  <rect x="40" y="80" width="130" height="140" fill="#4c1d95" />
  <rect x="190" y="40" width="170" height="180" fill="#6d28d9" />
  <rect x="70" y="110" width="22" height="22" fill="#ede9fe" />
  <rect x="110" y="110" width="22" height="22" fill="#ede9fe" />
  <rect x="70" y="150" width="22" height="22" fill="#ede9fe" />
  <rect x="110" y="150" width="22" height="22" fill="#ede9fe" />
  <rect x="220" y="70" width="26" height="26" fill="#ede9fe" />
  <rect x="260" y="70" width="26" height="26" fill="#ede9fe" />
  <rect x="300" y="70" width="26" height="26" fill="#ede9fe" />
  <rect x="220" y="110" width="26" height="26" fill="#ede9fe" />
  <rect x="260" y="110" width="26" height="26" fill="#ede9fe" />
  <rect x="300" y="110" width="26" height="26" fill="#ede9fe" />
  <rect x="220" y="150" width="26" height="26" fill="#ede9fe" />
  <rect x="260" y="150" width="26" height="26" fill="#ede9fe" />
  <rect x="300" y="150" width="26" height="26" fill="#ede9fe" />
</svg>
